<svg xmlns="http://www.w3.org/2000/svg" width="748.336" height="467.366" viewBox="0 0 748.336 467.366">
  <g id="undraw_Updated_re_u4yh" transform="translate(0 -218.826)">
    <path id="Path_287" data-name="Path 287" d="M863.785,789.9h-592s-12-142.967,59-144.592,63,63.36,152-25.994,197-84.481,211-31.68-27,95.041,48,82.044S924.785,690.8,863.785,789.9Z" transform="translate(-133.398 -106.904)" fill="#e6e6e6"/>
    <path id="Path_288" data-name="Path 288" d="M557.792,789.937l-2-.065c4.66-94.128,28.928-154.607,48.466-188.766,21.214-37.091,41.656-52.106,41.86-52.253l1.329,1.214c-.2.146-20.405,15.012-41.449,51.852C586.571,635.933,562.435,696.163,557.792,789.937Z" transform="translate(-133.398 -106.904)" fill="#fff"/>
    <path id="Path_289" data-name="Path 289" d="M772.052,790.131l-1.92-.454c23.119-64.46,77.562-105.158,78.109-105.562l1.344,1.2C849.042,685.719,795.007,726.129,772.052,790.131Z" transform="translate(-133.398 -106.904)" fill="#fff"/>
    <path id="Path_290" data-name="Path 290" d="M365.028,790.016l-1.981-.224A148.368,148.368,0,0,0,343.454,686.37c-14.366-23.622-30.757-36.524-30.921-36.652l1.384-1.172c.167.129,16.811,13.229,31.33,37.1a149.73,149.73,0,0,1,19.781,104.365Z" transform="translate(-133.398 -106.904)" fill="#fff"/>
    <path id="Path_291" data-name="Path 291" d="M492.8,553.924l9.643,11.174a6.508,6.508,0,0,1-.674,9.168l-93.13,80.369a6.508,6.508,0,0,1-9.168-.674l-9.643-11.174a6.508,6.508,0,0,1,.674-9.168l93.13-80.369a6.508,6.508,0,0,1,9.167.674Z" transform="translate(-133.398 -106.904)" fill="#98c1d9"/>
    <path id="Path_292" data-name="Path 292" d="M578.076,561.666l-6.763-13.118a6.508,6.508,0,0,1,2.8-8.756L683.448,483.42a6.508,6.508,0,0,1,8.756,2.8l6.763,13.118a6.507,6.507,0,0,1-2.8,8.756L586.832,564.465A6.507,6.507,0,0,1,578.076,561.666Z" transform="translate(-133.398 -106.904)" fill="#98c1d9"/>
    <path id="Path_293" data-name="Path 293" d="M569.089,546.62c.547-1.648,1.211-6.582,2.763-7.361l48.078-29.139a6.5,6.5,0,0,1,8.725,2.893l12.115,24.973h0a6.506,6.506,0,0,1-2.892,8.725L584.8,567.666a6.509,6.509,0,0,1-8.726-2.893l-6.621-13.191a6.448,6.448,0,0,1-.5-4.466C568.987,546.95,569.034,546.784,569.089,546.62Z" transform="translate(-133.398 -106.904)" fill="#3f3d56"/>
    <rect id="Rectangle_50" data-name="Rectangle 50" width="2" height="197" transform="translate(548.31 260.573)" fill="#3f3d56"/>
    <circle id="Ellipse_48" data-name="Ellipse 48" cx="23" cy="23" r="23" transform="translate(526.31 237.573)" fill="#3f3d56"/>
    <rect id="Rectangle_51" data-name="Rectangle 51" width="2" height="197" transform="translate(274.31 403.573)" fill="#3f3d56"/>
    <path id="Path_300" data-name="Path 300" d="M407.631,509.128a8.327,8.327,0,0,1-6.772-3.5,143.188,143.188,0,0,0-26.125-27.374q-.527-.431-1.058-.84c-3.521-2.778-7.219-5.419-10.994-7.852l-.263-.166c-.156-.1-.312-.2-.468-.293a141.623,141.623,0,0,0-76.185-22.193H141.9a8.51,8.51,0,0,1-8.5-8.5V334.23a8.51,8.51,0,0,1,8.5-8.5h265.81a8.51,8.51,0,0,1,8.5,8.5V500.606a8.383,8.383,0,0,1-5.879,8.089A8.712,8.712,0,0,1,407.631,509.128Z" transform="translate(-133.398 -106.904)" fill="#e6e6e6"/>
    <path id="Path_301" data-name="Path 301" d="M401.093,368.011H216.209a3.4,3.4,0,1,1,0-6.806H401.093a3.4,3.4,0,0,1,0,6.806Z" transform="translate(-133.398 -106.904)" fill="#ccc"/>
    <path id="Path_302" data-name="Path 302" d="M401.093,382.748H216.209a3.4,3.4,0,1,1,0-6.806H401.093a3.4,3.4,0,0,1,0,6.806Z" transform="translate(-133.398 -106.904)" fill="#ccc"/>
    <path id="Path_303" data-name="Path 303" d="M401.093,397.485H216.209a3.4,3.4,0,1,1,0-6.806H401.093a3.4,3.4,0,0,1,0,6.806Z" transform="translate(-133.398 -106.904)" fill="#ccc"/>
    <path id="Path_304" data-name="Path 304" d="M177.152,397.485H149.426a4.5,4.5,0,0,1-4.5-4.5V365.259a4.5,4.5,0,0,1,4.5-4.5h27.726a4.5,4.5,0,0,1,4.5,4.5v27.727a4.5,4.5,0,0,1-4.5,4.5Z" transform="translate(-133.398 -106.904)" fill="#ccc"/>
    <path id="Path_305" data-name="Path 305" d="M163.128,386.825a1.639,1.639,0,0,1-1.251-.577l-9.417-10.984a1.65,1.65,0,1,1,2.506-2.148l7.484,8.729a.686.686,0,0,0,.525.227.65.65,0,0,0,.5-.277l22.956-32.869a1.651,1.651,0,1,1,2.707,1.891l-24.656,35.3a1.64,1.64,0,0,1-1.272.7Q163.17,386.825,163.128,386.825Z" transform="translate(-133.398 -106.904)" fill="#fff"/>
    <circle id="Ellipse_49" data-name="Ellipse 49" cx="23" cy="23" r="23" transform="translate(252.31 380.573)" fill="#3f3d56"/>
    <circle id="Ellipse_50" data-name="Ellipse 50" cx="53.519" cy="53.519" r="53.519" transform="translate(351.036 292.18)" fill="#98c1d9"/>
    <path id="Path_306" data-name="Path 306" d="M535.52,791.949H520.76a6.507,6.507,0,0,1-6.5-6.5V662.436a6.507,6.507,0,0,1,6.5-6.5h14.759a6.507,6.507,0,0,1,6.5,6.5V785.449a6.507,6.507,0,0,1-6.5,6.5Z" transform="translate(-133.398 -106.904)" fill="#98c1d9"/>
    <path id="Path_307" data-name="Path 307" d="M614.89,725.971l-12.006,8.585a6.507,6.507,0,0,1-9.068-1.507L522.267,632.983a6.508,6.508,0,0,1,1.507-9.068l12.006-8.585a6.508,6.508,0,0,1,9.068,1.507L616.4,716.9a6.508,6.508,0,0,1-1.507,9.068Z" transform="translate(-133.398 -106.904)" fill="#98c1d9"/>
    <path id="Path_308" data-name="Path 308" d="M576.126,791.086l-13.213-6.578c-3.208-1.6-5.012-4.518-4.019-6.511l34.053-68.4c.992-1.993,4.41-2.315,7.618-.717l13.213,6.578c3.208,1.6,5.012,4.518,4.019,6.511l-34.053,68.4C582.752,792.361,579.335,792.683,576.126,791.086Z" transform="translate(-133.398 -106.904)" fill="#98c1d9"/>
    <path id="Path_309" data-name="Path 309" d="M623.116,635.2c0,43.63-41.041,57.7-84.672,57.7s-73.328-14.074-73.328-57.7,29.37-118,73-118S623.116,591.57,623.116,635.2Z" transform="translate(-133.398 -106.904)" fill="#3f3d56"/>
    <path id="Path_310" data-name="Path 310" d="M506.1,541.492a6.449,6.449,0,0,1,3.791,2.414l8.942,11.741a6.509,6.509,0,0,1-1.232,9.11l-42.137,38.485a6.506,6.506,0,0,1-9.109-1.233h0l-17.115-21.852a6.5,6.5,0,0,1,1.233-9.109l47.292-30.4c1.381-1.052,6.106.518,7.827.751C505.763,541.425,505.932,541.456,506.1,541.492Z" transform="translate(-133.398 -106.904)" fill="#3f3d56"/>
    <path id="Path_311" data-name="Path 311" d="M537.087,399.478c-6.309-12.949-.717-28.772,9.567-37.925,12.42-11.053,30.952-10.989,45.7-5.12,16.012,6.373,27.919,19.9,36.482,34.45,4.316,7.333,7.687,15.1,11.264,22.8,3.5,7.546,7.455,15.081,13.363,21.051a31.442,31.442,0,0,0,18.473,9.236c6.446.823,13.391-.483,18.319-4.948a18.239,18.239,0,0,0,3.061-3.678c1.047-1.629-1.549-3.135-2.59-1.514-3.59,5.588-10.195,7.679-16.575,7.344a28.237,28.237,0,0,1-18.566-8.562c-5.961-6.023-9.81-13.736-13.314-21.353-3.61-7.846-7.1-15.708-11.574-23.116-8.86-14.672-21.02-27.9-37.172-34.453-15.061-6.108-33.755-6.21-47.039,4.125-11.156,8.68-17.877,24.21-13.925,38.173a30.288,30.288,0,0,0,1.939,5c.845,1.735,3.433.216,2.59-1.514Z" transform="translate(-133.398 -106.904)" fill="#2f2e41"/>
    <path id="Path_312" data-name="Path 312" d="M538.92,394.568l-14.244-4.7a5.5,5.5,0,0,1,3.449-10.444l14.244,4.7a5.5,5.5,0,1,1-3.449,10.444Z" transform="translate(-133.398 -106.904)" fill="#2f2e41"/>
    <path id="Path_313" data-name="Path 313" d="M530.828,472.44l-.056-2c3.721-.1,7-.337,9.466-2.138a6.148,6.148,0,0,0,2.381-4.528,3.515,3.515,0,0,0-1.153-2.895c-1.636-1.382-4.269-.935-6.188-.055l-1.655.759,3.173-23.19,1.981.271-2.7,19.727c2.607-.767,5.023-.437,6.678.961a5.471,5.471,0,0,1,1.86,4.492,8.133,8.133,0,0,1-3.2,6.073C538.251,472.232,534.135,472.347,530.828,472.44Z" transform="translate(-133.398 -106.904)" fill="#2f2e41"/>
    <rect id="Rectangle_52" data-name="Rectangle 52" width="10.771" height="2" transform="translate(415.18 333.461)" fill="#2f2e41"/>
    <rect id="Rectangle_53" data-name="Rectangle 53" width="10.771" height="2" transform="translate(381.18 333.461)" fill="#2f2e41"/>
    <rect id="Rectangle_54" data-name="Rectangle 54" width="324.033" height="2.241" transform="translate(266.558 683.951)" fill="#3f3d56"/>
  </g>
</svg>
