<svg xmlns="http://www.w3.org/2000/svg" width="217.835" height="551.872" viewBox="0 0 217.835 551.872">
  <g id="undraw_happy_announcement_ac67" transform="translate(-0.002 -109.819)">
    <path id="Path_42" data-name="Path 42" d="M166.6,372.686c.91,56.174,21.905,62.255,47.689,56.4,29.454-6.693,53.63-27.671,65.545-55.427l8.217-19.142a52.217,52.217,0,0,0-27.384-68.58h0a52.217,52.217,0,0,0-68.58,27.384C165.643,323.7,160.421,345.209,166.6,372.686Z" transform="translate(-124.215 -117.436)" fill="#333"/>
    <path id="Path_43" data-name="Path 43" d="M332.389,259.626l7.914-13.391a12.58,12.58,0,0,0-7.109-18.417h0A12.58,12.58,0,0,0,316.9,240.241l.465,14.395L280.174,356.556l20.281,4.234Z" transform="translate(-124.215 -117.436)" fill="#ffb8b8"/>
    <path id="Path_44" data-name="Path 44" d="M136.73,510.879l-9.741,12.127a12.58,12.58,0,0,0,4.412,19.242h0a12.58,12.58,0,0,0,17.9-9.975l1.59-14.314,51.332-95.583-19.471-7.08Z" transform="translate(-124.215 -117.436)" fill="#ffb8b8"/>
    <path id="Path_45" data-name="Path 45" d="M196.912,611.773,198.346,629l.336,4.018,95.335-9.169a21.02,21.02,0,0,0,16.833-29.471l-30.746-66.006-10.62-22.8-46.021-10.62c-37.95,29.047-3.806,61.1,39.154,93.53q2.522,1.912,5.1,3.823Z" transform="translate(-124.215 -117.436)" fill="#2f2e41"/>
    <path id="Path_46" data-name="Path 46" d="M164.789,671.411h0a6.85,6.85,0,0,0,6.249-2.418l31.184-37.75-1.77-17.7-10.633-6.38a6.987,6.987,0,0,0-10.094,3.426l-20.34,51.527a6.85,6.85,0,0,0,5.4,9.3Z" transform="translate(-124.215 -117.436)" fill="#2f2e41"/>
    <path id="Path_47" data-name="Path 47" d="M191.6,608.232l1.77,21.241,4.974-.478,90.361-8.691a21.02,21.02,0,0,0,16.833-29.471L280.105,533.89v-5.523l-10.62-22.8-46.021-10.62c-37.95,29.047-3.806,61.1,39.154,93.53l-.212.283Z" transform="translate(-124.215 -117.436)" opacity="0.2"/>
    <path id="Path_48" data-name="Path 48" d="M155.938,664.331h0a6.849,6.849,0,0,0,6.249-2.418l31.185-37.75-1.77-17.7-10.633-6.38a6.987,6.987,0,0,0-10.094,3.426l-20.339,51.526a6.849,6.849,0,0,0,5.4,9.3Z" transform="translate(-124.215 -117.436)" fill="#2f2e41"/>
    <path id="Path_49" data-name="Path 49" d="M188.062,604.692l1.77,21.241,95.335-9.171a21.023,21.023,0,0,0,16.841-29.467L276.565,530.35V498.489l-61.952-10.62c-39.443,30.187-1.012,63.627,44.251,97.353Z" transform="translate(-124.215 -117.436)" fill="#333"/>
    <circle id="Ellipse_11" data-name="Ellipse 11" cx="26.551" cy="26.551" r="26.551" transform="translate(97.478 184.576)" fill="#fdbea8"/>
    <path id="Path_50" data-name="Path 50" d="M212.843,372.815,250.014,397.6l31.861-7.08-17.7-17.7V346.264l-28.321-1.77C235.259,355.1,229.184,364.8,212.843,372.815Z" transform="translate(-124.215 -117.436)" fill="#ffb8b8"/>
    <path id="Path_51" data-name="Path 51" d="M207.533,496.719l69.032,8.85L292.5,431.227c7.4-19.733,3.155-37.168-10.547-52.737a11.824,11.824,0,0,0-11.236-9.5l-6.537.285c.74,23.475-16.556,17.821-42.481-1.77l-3.13.939a17.583,17.583,0,0,0-12.341,19.418l2.854,19.268A131.832,131.832,0,0,0,214.7,429.6C221.773,450.748,219.244,473.14,207.533,496.719Z" transform="translate(-124.215 -117.436)" fill="#3d5a80"/>
    <path id="Path_52" data-name="Path 52" d="M175.672,417.066l31.861,10.62,14.16-51.332-4.8-2.181a17.2,17.2,0,0,0-22.285,7.538Z" transform="translate(-124.215 -117.436)" fill="#3d5a80"/>
    <path id="Path_53" data-name="Path 53" d="M145.27,251.839l17.7,19.47,21.24-33.631-26.551-14.16Z" fill="#3d5a80"/>
    <path id="Path_54" data-name="Path 54" d="M217.268,320.6c16.684,6.291,34.49,5.639,53.1,0v-21.24h-53.1Z" transform="translate(-124.215 -117.436)" fill="#2f2e41"/>
    <ellipse id="Ellipse_14" data-name="Ellipse 14" cx="74" cy="3.854" rx="74" ry="3.854" transform="translate(27.571 653.982)" fill="#e0fbfc"/>
  </g>
</svg>
