<svg xmlns="http://www.w3.org/2000/svg" width="699.271" height="386.757" viewBox="0 0 699.271 386.757">
  <g id="undraw_task_list_6x9d" transform="translate(0 0)">
    <path id="Path_354" data-name="Path 354" d="M736,678.632H351a8.51,8.51,0,0,1-8.5-8.5V446a8.509,8.509,0,0,1,8.5-8.5H736a8.51,8.51,0,0,1,8.5,8.5V670.132A8.51,8.51,0,0,1,736,678.632Z" transform="translate(-291 -347.246)" fill="#e6e6e6"/>
    <path id="Path_355" data-name="Path 355" d="M760,710H327V423.5a9.511,9.511,0,0,1,9.5-9.5h414a9.511,9.511,0,0,1,9.5,9.5Zm-431-2H758V423.5a7.508,7.508,0,0,0-7.5-7.5h-414a7.508,7.508,0,0,0-7.5,7.5Z" transform="translate(-291 -347.246)" fill="#ccc"/>
    <circle id="Ellipse_54" data-name="Ellipse 54" cx="4" cy="4" r="4" transform="translate(248.5 75.254)" fill="#e6e6e6"/>
    <path id="Path_356" data-name="Path 356" d="M640,631.066H447a8.51,8.51,0,0,1-8.5-8.5v-129a8.51,8.51,0,0,1,8.5-8.5H640a8.51,8.51,0,0,1,8.5,8.5v129A8.51,8.51,0,0,1,640,631.066Z" transform="translate(-291 -347.246)" fill="#fff"/>
    <path id="Path_357" data-name="Path 357" d="M478.75,540.066a8,8,0,1,1,8-8,8,8,0,0,1-8,8Z" transform="translate(-291 -347.246)" fill="#ccc"/>
    <path id="Path_358" data-name="Path 358" d="M478.75,566.066a8,8,0,1,1,8-8,8,8,0,0,1-8,8Z" transform="translate(-291 -347.246)" fill="#98c1d9"/>
    <path id="Path_359" data-name="Path 359" d="M478.75,592.066a8,8,0,1,1,8-8,8,8,0,0,1-8,8Z" transform="translate(-291 -347.246)" fill="#98c1d9"/>
    <path id="Path_360" data-name="Path 360" d="M516.75,525.566a6.5,6.5,0,0,0,0,13h93a6.5,6.5,0,0,0,0-13Z" transform="translate(-291 -347.246)" fill="#ccc"/>
    <path id="Path_361" data-name="Path 361" d="M516.75,551.566a6.5,6.5,0,0,0,0,13h93a6.5,6.5,0,0,0,0-13Z" transform="translate(-291 -347.246)" fill="#98c1d9"/>
    <path id="Path_362" data-name="Path 362" d="M516.75,577.566a6.5,6.5,0,0,0,0,13h93a6.5,6.5,0,0,0,0-13Z" transform="translate(-291 -347.246)" fill="#98c1d9"/>
    <path id="Path_363" data-name="Path 363" d="M663.288,375.328l-12.258-.206-5.039-47.379,18.092.3Z" fill="#ffb8b8"/>
    <path id="Path_364" data-name="Path 364" d="M933.208,718.79h23.644v14.887H918.321A14.887,14.887,0,0,1,933.208,718.79Z" transform="translate(-278.665 -362.897) rotate(0.963)" fill="#2f2e41"/>
    <path id="Path_365" data-name="Path 365" d="M541.641,375.216l-11.364-4.6,12.335-46.022,16.772,6.79Z" fill="#ffb8b8"/>
    <path id="Path_366" data-name="Path 366" d="M811.361,712.428h23.644v14.887H796.474a14.887,14.887,0,0,1,14.887-14.887Z" transform="translate(38.712 -600.731) rotate(22.038)" fill="#2f2e41"/>
    <path id="Path_367" data-name="Path 367" d="M873.614,545.171l-36,95-15,66,16,8,73-142,27,142.5h16s7.316-169.015-3.342-182.257Z" transform="translate(-291 -347.246)" fill="#2f2e41"/>
    <circle id="Ellipse_55" data-name="Ellipse 55" cx="28.172" cy="28.172" r="28.172" transform="translate(509.812 245.594)" fill="#98c1d9"/>
    <path id="Path_368" data-name="Path 368" d="M535.636,286.223l-8.941-11.5,5.2-4.044,4.233,5.443,14.3-15.1,4.783,4.531Z" fill="#fff"/>
    <circle id="Ellipse_56" data-name="Ellipse 56" cx="33" cy="33" r="33" transform="translate(567.114 0.426)" fill="#2f2e41"/>
    <path id="Path_369" data-name="Path 369" d="M845.06,605.23a10.743,10.743,0,0,0,3.842-16.018l25.033-138.54-23.36-.308-17.383,137a10.8,10.8,0,0,0,11.87,17.868Z" transform="translate(-291 -347.246)" fill="#ffb8b8"/>
    <path id="Path_370" data-name="Path 370" d="M988.509,578.17a10.745,10.745,0,0,0-5.166-15.94l-44.7-108.58a19.782,19.782,0,0,0-28.735-9.27h0l59.206,124.761a10.8,10.8,0,0,0,19.4,9.029Z" transform="translate(-291 -347.246)" fill="#ffb8b8"/>
    <circle id="Ellipse_57" data-name="Ellipse 57" cx="24.561" cy="24.561" r="24.561" transform="translate(576.207 21.298)" fill="#ffb8b8"/>
    <path id="Path_371" data-name="Path 371" d="M861.9,431.938c14.166-5.9,38.623-11.726,65.781.978A24.872,24.872,0,0,1,940.994,448.3l11.62,38.868-15,15,14,31s-53.5,32.5-77.5,12.5l-14.5-51.5-19-5L847.1,450.66A24.688,24.688,0,0,1,861.9,431.938Z" transform="translate(-291 -347.246)" fill="#ccc"/>
    <path id="Path_372" data-name="Path 372" d="M868.8,374.941a73.041,73.041,0,0,0,31.6,10.412l-3.331-3.991a24.477,24.477,0,0,0,7.561,1.5,8.281,8.281,0,0,0,6.749-3.159,7.7,7.7,0,0,0,.516-7.115,14.588,14.588,0,0,0-4.589-5.738,27.323,27.323,0,0,0-25.431-4.545,16.33,16.33,0,0,0-7.6,4.872,9.236,9.236,0,0,0-1.862,8.561" transform="translate(-291 -347.246)" fill="#2f2e41"/>
    <path id="Path_373" data-name="Path 373" d="M864.2,353.087c-.4-4.2-5.545-6.786-9.568-5.517s-6.665,5.32-7.464,9.463A13.576,13.576,0,0,0,849,367.281a9.339,9.339,0,0,0,9.257,4.011c3.979-.848,6.736-4.734,7.525-8.726s.006-8.107-.777-12.1" transform="translate(-291 -347.246)" fill="#2f2e41"/>
    <path id="Path_374" data-name="Path 374" d="M932.2,355.087c-.4-4.2-5.545-6.786-9.568-5.517s-6.665,5.32-7.464,9.463A13.575,13.575,0,0,0,917,369.281a9.339,9.339,0,0,0,9.257,4.011c3.979-.848,6.736-4.734,7.525-8.726s.006-8.107-.777-12.1" transform="translate(-291 -347.246)" fill="#2f2e41"/>
    <path id="Path_375" data-name="Path 375" d="M767.5,697H750v-3a4,4,0,0,0-4-4H725a4,4,0,0,0-4,4v3h-3v-3a4,4,0,0,0-4-4H693a4,4,0,0,0-4,4v3h-3v-3a4,4,0,0,0-4-4H661a4,4,0,0,0-4,4v3h-3v-3a4,4,0,0,0-4-4H629a4,4,0,0,0-4,4v3h-3v-3a4,4,0,0,0-4-4H597a4,4,0,0,0-4,4v3h-3v-3a4,4,0,0,0-4-4H565a4,4,0,0,0-4,4v3h-3v-3a4,4,0,0,0-4-4H533a4,4,0,0,0-4,4v3h-3v-3a4,4,0,0,0-4-4H501a4,4,0,0,0-4,4v3h-3v-3a4,4,0,0,0-4-4H469a4,4,0,0,0-4,4v3h-3v-3a4,4,0,0,0-4-4H437a4,4,0,0,0-4,4v3h-3v-3a4,4,0,0,0-4-4H405a4,4,0,0,0-4,4v3h-3v-3a4,4,0,0,0-4-4H373a4,4,0,0,0-4,4v3h-3v-3a4,4,0,0,0-4-4H341a4,4,0,0,0-4,4v3H319.5A28.5,28.5,0,0,0,291,725.5h0a8.5,8.5,0,0,0,8.5,8.5h488a8.5,8.5,0,0,0,8.5-8.5h0A28.5,28.5,0,0,0,767.5,697Z" transform="translate(-291 -347.246)" fill="#3f3d56"/>
  </g>
</svg>
