<svg xmlns="http://www.w3.org/2000/svg" width="788.606" height="505.464" viewBox="0 0 788.606 505.464">
  <g id="undraw_Domain_names_re_0uun" transform="translate(0 0)">
    <path id="Path_135" data-name="Path 135" d="M942.334,700.889c-10.217-6.835-15.362-19.838-15.565-32.129-.068-4.122.972-8.9,4.664-10.733a6.409,6.409,0,0,1,9.174,6.785,62.043,62.043,0,0,1,5.3-11.516c1.825-3.088,4.388-6.3,7.963-6.6,4.148-.341,7.613,3.688,8.2,7.808s-.911,8.22-2.385,12.112a10.83,10.83,0,0,1,17.159-6.084c4.056,3.131,5.393,8.894,4.372,13.916s-4.017,9.415-7.331,13.323c-3.886,4.583-8.386,8.771-13.773,11.431s-11.758,3.678-17.489,1.874Z" transform="translate(-205.697 -197.268)" fill="#f2f2f2"/>
    <path id="Path_136" data-name="Path 136" d="M802.592,536.291a10.743,10.743,0,0,0,3.842-16.018l25.033-121.54-23.36-.308-17.384,120a10.8,10.8,0,0,0,11.87,17.868Z" transform="translate(-205.697 -197.268)" fill="#ffb8b8"/>
    <path id="Path_137" data-name="Path 137" d="M916.376,529.979a10.743,10.743,0,0,0-.9-16.448L904.726,389.907l-22.473,6.382L899.894,516.25a10.8,10.8,0,0,0,16.482,13.729Z" transform="translate(-205.697 -197.268)" fill="#ffb8b8"/>
    <path id="Path_138" data-name="Path 138" d="M638.591,492.157h-12.26L620.5,444.868h18.094Z" fill="#ffb8b8"/>
    <path id="Path_139" data-name="Path 139" d="M617.574,488.653h23.644V503.54H602.687A14.887,14.887,0,0,1,617.574,488.653Z" fill="#2f2e41"/>
    <path id="Path_140" data-name="Path 140" d="M693.591,492.157h-12.26L675.5,444.868h18.094Z" fill="#ffb8b8"/>
    <path id="Path_141" data-name="Path 141" d="M672.574,488.653h23.644V503.54H657.687A14.887,14.887,0,0,1,672.574,488.653Z" fill="#2f2e41"/>
    <circle id="Ellipse_24" data-name="Ellipse 24" cx="24.561" cy="24.561" r="24.561" transform="translate(617.207 105.171)" fill="#ffb8b8"/>
    <path id="Path_142" data-name="Path 142" d="M881.993,659.587a4.334,4.334,0,0,1-4.231-3.49l-16.6-85.906a3.349,3.349,0,0,0-6.617.266l-9.3,83.677a4.285,4.285,0,0,1-4.085,3.825l-13.945.634a4.234,4.234,0,0,1-3.106-1.127,4.277,4.277,0,0,1-1.392-3l-5.347-129.259a4.28,4.28,0,0,1,1.508-3.454l3.092-2.638a4.311,4.311,0,0,1,2.795-1.03h72.279a4.311,4.311,0,0,1,4.307,4.307v132.23a4.3,4.3,0,0,1-4.119,4.3l-15.051.655C882.115,659.585,882.054,659.587,881.993,659.587Z" transform="translate(-205.697 -197.268)" fill="#2f2e41"/>
    <path id="Path_143" data-name="Path 143" d="M844.976,536.9c-11.686,0-21.986-3.113-27.186-12.194a4.387,4.387,0,0,1-.586-2.472l6.534-99.877a3.349,3.349,0,0,0-.679-2.25l-18.334-24.038a4.305,4.305,0,0,1,.824-6.043l27.5-20.836a3.367,3.367,0,0,0,1.2-1.75l.8-2.8a4.3,4.3,0,0,1,3.975-3.121l20.181-.777a4.348,4.348,0,0,1,3.529,1.614l2.148,2.684a3.342,3.342,0,0,0,1,.84l33.75,18.65a4.315,4.315,0,0,1,2.223,3.723v.06l-.014.057c-7.867,32.8-7.425,74.264,1.392,130.485a4.3,4.3,0,0,1-2.581,4.064C893.344,526.076,866.756,536.9,844.976,536.9Z" transform="translate(-205.697 -197.268)" fill="#98c1d9"/>
    <path id="Path_144" data-name="Path 144" d="M824.424,433.872H801.566a4.3,4.3,0,0,1-4.3-4.55c.34-5.823,1.011-16.9,1.683-25.632.967-12.568,13.281-18.754,13.406-18.816l.241-.118,8.314,5.278,7.737,38.688a4.307,4.307,0,0,1-4.223,5.15Z" transform="translate(-205.697 -197.268)" fill="#98c1d9"/>
    <path id="Path_145" data-name="Path 145" d="M887.06,431.738a4.312,4.312,0,0,1-4.26-4.776l4.218-38.81,8.15-5.969.185.021c.087.01,8.769,1.094,12.659,10.818,2.77,6.924,7,19.721,9.275,26.734a4.3,4.3,0,0,1-3.081,5.507l-26.108,6.35a4.357,4.357,0,0,1-1.039.126Z" transform="translate(-205.697 -197.268)" fill="#98c1d9"/>
    <path id="Path_146" data-name="Path 146" d="M848.024,351.732c5.253-8.311-1.305-31.189-15.6-31.786-3.3-.138-4.566-4.939-5.688-8.044a12.389,12.389,0,0,1,1.61-10.779,20.338,20.338,0,0,1,8.676-7.008,30.107,30.107,0,1,1,16.861,57.157Z" transform="translate(-205.697 -197.268)" fill="#2f2e41"/>
    <path id="Path_147" data-name="Path 147" d="M699.7,197.268h-487a7.008,7.008,0,0,0-7,7v330a7.008,7.008,0,0,0,7,7h487a7.008,7.008,0,0,0,7-7v-330A7.008,7.008,0,0,0,699.7,197.268Zm5,337a5,5,0,0,1-5,5h-487a5,5,0,0,1-5-5v-330a5,5,0,0,1,5-5h487a5,5,0,0,1,5,5Z" transform="translate(-205.697 -197.268)" fill="#3f3d56"/>
    <rect id="Rectangle_41" data-name="Rectangle 41" width="499" height="2" transform="translate(1 28.04)" fill="#3f3d56"/>
    <circle id="Ellipse_25" data-name="Ellipse 25" cx="6" cy="6" r="6" transform="translate(12 9)" fill="#3f3d56"/>
    <circle id="Ellipse_26" data-name="Ellipse 26" cx="6" cy="6" r="6" transform="translate(29.25 9)" fill="#3f3d56"/>
    <circle id="Ellipse_27" data-name="Ellipse 27" cx="6" cy="6" r="6" transform="translate(46.5 9)" fill="#3f3d56"/>
    <path id="Path_148" data-name="Path 148" d="M609.524,293.732h-310a15.5,15.5,0,0,1,0-31h310a15.5,15.5,0,0,1,0,31Zm-310-29a13.5,13.5,0,0,0,0,27h310a13.5,13.5,0,0,0,0-27Z" transform="translate(-205.697 -197.268)" fill="#3f3d56"/>
    <path id="Path_149" data-name="Path 149" d="M379.524,372.732h-60a15.5,15.5,0,0,1,0-31h60a15.5,15.5,0,1,1,0,31Zm-60-29a13.5,13.5,0,0,0,0,27h60a13.5,13.5,0,0,0,0-27Z" transform="translate(-205.697 -197.268)" fill="#3f3d56"/>
    <path id="Path_150" data-name="Path 150" d="M379.524,424.732h-60a15.5,15.5,0,0,1,0-31h60a15.5,15.5,0,0,1,0,31Zm-60-29a13.5,13.5,0,0,0,0,27h60a13.5,13.5,0,0,0,0-27Z" transform="translate(-205.697 -197.268)" fill="#3f3d56"/>
    <path id="Path_151" data-name="Path 151" d="M379.524,476.732h-60a15.5,15.5,0,0,1,0-31h60a15.5,15.5,0,0,1,0,31Zm-60-29a13.5,13.5,0,0,0,0,27h60a13.5,13.5,0,0,0,0-27Z" transform="translate(-205.697 -197.268)" fill="#3f3d56"/>
    <path id="Path_152" data-name="Path 152" d="M388.524,285.232h-84a7,7,0,0,1,0-14h84a7,7,0,1,1,0,14Z" transform="translate(-205.697 -197.268)" fill="#98c1d9"/>
    <path id="Path_153" data-name="Path 153" d="M599.024,281.732a7,7,0,1,1,7-7A7,7,0,0,1,599.024,281.732Zm0-12a5,5,0,1,0,5,5A5,5,0,0,0,599.024,269.732Z" transform="translate(-205.697 -197.268)" fill="#3f3d56"/>
    <path id="Path_154" data-name="Path 154" d="M609.852,288.065a1,1,0,0,1-.707-.293l-7.026-7.026a1,1,0,0,1,1.414-1.414l7.026,7.026a1,1,0,0,1-.707,1.707Z" transform="translate(-205.697 -197.268)" fill="#3f3d56"/>
    <path id="Path_155" data-name="Path 155" d="M595.024,366.732h-34a9.5,9.5,0,0,1,0-19h34a9.5,9.5,0,0,1,0,19Z" transform="translate(-205.697 -197.268)" fill="#98c1d9"/>
    <path id="Path_156" data-name="Path 156" d="M595.024,418.732h-34a9.5,9.5,0,0,1,0-19h34a9.5,9.5,0,0,1,0,19Z" transform="translate(-205.697 -197.268)" fill="#98c1d9"/>
    <path id="Path_157" data-name="Path 157" d="M595.024,470.732h-34a9.5,9.5,0,0,1,0-19h34a9.5,9.5,0,0,1,0,19Z" transform="translate(-205.697 -197.268)" fill="#98c1d9"/>
    <path id="Path_158" data-name="Path 158" d="M993.3,702.732h-248a1,1,0,0,1,0-2h248a1,1,0,0,1,0,2Z" transform="translate(-205.697 -197.268)" fill="#3f3d56"/>
  </g>
</svg>
