<svg xmlns="http://www.w3.org/2000/svg" width="789.493" height="623.437" viewBox="0 0 789.493 623.437">
  <g id="undraw_annotation_7das" transform="translate(-249.163)">
    <path id="Path_118" data-name="Path 118" d="M1072.18,732.074c-13.9,25.876-743.449,23.7-742.343,0C343.737,706.2,1073.29,708.37,1072.18,732.074Z" transform="translate(-80.673 -138.282)" fill="#e0fbfc"/>
    <rect id="Rectangle_10" data-name="Rectangle 10" width="350.92" height="262.233" transform="translate(627.825 193.92)" fill="rgba(61,90,128,0.15)"/>
    <rect id="Rectangle_11" data-name="Rectangle 11" width="139.956" height="9.495" transform="translate(733.307 221.287)" fill="#fff"/>
    <rect id="Rectangle_12" data-name="Rectangle 12" width="97.249" height="10.291" transform="translate(675.678 254.451)" fill="#fff"/>
    <rect id="Rectangle_13" data-name="Rectangle 13" width="97.249" height="10.291" transform="translate(753.889 322.371)" fill="#fff"/>
    <rect id="Rectangle_14" data-name="Rectangle 14" width="97.249" height="10.291" transform="translate(832.1 254.451)" fill="#98c1d9"/>
    <rect id="Rectangle_35" data-name="Rectangle 35" width="255.215" height="10.291" transform="translate(675.678 288.411)" fill="#fff"/>
    <rect id="Rectangle_36" data-name="Rectangle 36" width="57.115" height="10.291" transform="translate(675.678 322.371)" fill="#98c1d9"/>
    <rect id="Rectangle_37" data-name="Rectangle 37" width="57.115" height="10.291" transform="translate(676.678 382.291)" fill="#fff"/>
    <rect id="Rectangle_38" data-name="Rectangle 38" width="57.115" height="10.291" transform="translate(872.235 322.371)" fill="#fff"/>
    <rect id="Rectangle_39" data-name="Rectangle 39" width="255.215" height="10.291" transform="translate(670.678 356.331)" fill="#fff"/>
    <rect id="Rectangle_40" data-name="Rectangle 40" width="149.733" height="10.291" transform="translate(776.16 390.291)" fill="#fff"/>
    <circle id="Ellipse_20" data-name="Ellipse 20" cx="16.465" cy="16.465" r="16.465" transform="translate(759.469 0)" fill="#98c1d9"/>
    <path id="Path_121" data-name="Path 121" d="M1000.48,714.661s24.01-80.786-67.3-126.781Z" transform="translate(-80.673 -138.282)" fill="#e0fbfc"/>
    <path id="Path_122" data-name="Path 122" d="M1003.47,715.092s9.518-79.732,115.859-84.73Z" transform="translate(-80.673 -138.282)" fill="#e0fbfc"/>
    <path id="Path_123" data-name="Path 123" d="M514.823,564.05,490,562.4l8.273,37.228,28.128-11.582Z" fill="#ffb9b9"/>
    <path id="Path_124" data-name="Path 124" d="M742.332,494.556,684.421,438.3l-33.092,25.646L585.971,542.54l7.446,11.582,79.422-53.774,53.774,70.321,51.293-25.647Z" fill="#2f2e41"/>
    <path id="Path_125" data-name="Path 125" d="M742.332,494.556,684.421,438.3l-33.092,25.646L585.971,542.54l7.446,11.582,79.422-53.774,53.774,70.321,51.293-25.647Z" fill="#333" opacity="0.1"/>
    <path id="Path_126" data-name="Path 126" d="M827.969,670.067l-7.446,5.791L760.13,655.175l-14.064-5.791-28.129,5.791s0-23.165,26.474-22.337l27.3,6.618,32.265,2.482Z" transform="translate(-80.673 -138.282)" fill="#ffb9b9"/>
    <path id="Path_127" data-name="Path 127" d="M801.071,593.006l-18.2,11.582H761.36l-100.1-37.229L514.823,593.833,510.686,562.4,644.71,503.657,762.188,542.54Z" fill="#333"/>
    <path id="Path_128" data-name="Path 128" d="M764.266,584.027l-12.41,2.482-2.7-3.155A16.717,16.717,0,0,1,746.893,565h0l34.747-45.5s9.928-22.337,25.646-13.237-13.237,23.992-13.237,23.992l-17.373,27.3,1.655,14.064Z" transform="translate(-80.673 -138.282)" fill="#ffb9b9"/>
    <circle id="Ellipse_22" data-name="Ellipse 22" cx="32.265" cy="32.265" r="32.265" transform="translate(729.923 327.44)" fill="#ffb9b9"/>
    <path id="Path_129" data-name="Path 129" d="M828.382,521.565l14.891,35.574,35.574-14.891s-11.582-28.128-11.582-28.956S828.382,521.565,828.382,521.565Z" transform="translate(-80.673 -138.282)" fill="#ffb9b9"/>
    <path id="Path_130" data-name="Path 130" d="M926.344,626.807a185.375,185.375,0,0,1-9.091,57.337l-2.417,7.433-11.582,52.948-12.41,3.309-9.1-11.582-18.2-13.237L850.306,701.5l-11.351-18.912-3.541-5.907-12.41-62.048-47.156-26.474-15.719-2.482,3.309-9.1L777.5,557.553l14.064-1.655,4.137-3.309,3.309,1.655L812.25,546.8l4.137,1.655,24.19,2.25,14.693-3.078L876.4,536.283l8.654,1.415,29.783,24.819a185.221,185.221,0,0,1,11.508,64.29Z" transform="translate(-80.673 -138.282)" fill="#3d5a80"/>
    <path id="Path_131" data-name="Path 131" d="M578.295,715.142s7.41-12.559,4.28-14.025-16.422-7.311-16.422-7.311l-19.492-6.46s-28.126-41.8-28.743-5.45S538.4,726.985,538.4,726.985s18.816,40.493,29.474,34.036,21.323-28.376,21.323-28.376S569.974,722.313,578.295,715.142Z" transform="translate(-80.673 -138.282)" fill="#333"/>
    <path id="Path_132" data-name="Path 132" d="M836.645,481.32,805.208,502l-46.925,42.309-3.541-5.907-9.928-49.639H747.3l25.647-47.156Z" opacity="0.1"/>
    <path id="Path_133" data-name="Path 133" d="M772.943,436.645,747.3,483.8h-9.1l-5.791,16.547-13.237,3.309,35.574,38.883,50.466-45.5,31.437-20.682Z" fill="#3d5a80"/>
    <path id="Path_134" data-name="Path 134" d="M817.765,474l-3.5,1.345a4.88,4.88,0,0,1-1.248-6.86l-6.46-.3a48.782,48.782,0,0,1,72.825-5.87c.294-1.013,3.5.958,4.809,2.956.44-1.648,3.446,6.32,4.509,11.953.492-1.875,2.385,1.152.727,4.057,1.051-.154,1.525,2.535.712,4.032,1.149-.54.956,2.669-.291,4.813,1.64-.146-12.935,22.476-18.837,35.7-1.714-7.873-3.64-16.164-9.166-22.029-.939-1-1.968-1.9-2.995-2.811l-5.554-4.9c-6.458-5.7-12.333-12.736-20.935-14.866-5.912-1.464-9.651-1.795-6.429-8.457-2.911,1.215-5.629,3.021-8.567,4.15C817.411,475.97,817.822,474.928,817.765,474Z" transform="translate(-80.673 -138.282)" fill="#333"/>
    <circle id="Ellipse_23" data-name="Ellipse 23" cx="5.791" cy="5.791" r="5.791" transform="translate(772.529 357.637)" fill="#ffb9b9"/>
  </g>
</svg>
